<svg width="25" height="23" viewBox="0 0 25 23" fill="none" xmlns="http://www.w3.org/2000/svg">
<path d="M22.2221 13.8889C22.2221 13.8889 19.4443 17.9102 19.4443 19.4444C19.4443 20.9787 20.6883 22.2222 22.2221 22.2222C23.756 22.2222 24.9999 20.9787 24.9999 19.4444C24.9999 17.9102 22.2221 13.8889 22.2221 13.8889ZM21.8154 9.42101L12.8011 0.406684C12.5298 0.135417 12.1744 0 11.8189 0C11.4634 0 11.108 0.135417 10.8371 0.406684L7.29633 3.94748L3.55588 0.206597C3.28461 -0.0646701 2.84494 -0.0646701 2.57411 0.206597L1.59234 1.18837C1.32151 1.45964 1.32151 1.89931 1.59234 2.17014L5.33322 5.91059L1.22038 10.0234C-0.406793 11.6502 -0.406793 14.2882 1.22038 15.9154L6.30675 21.0017C7.12012 21.8151 8.18652 22.2222 9.25249 22.2222C10.3189 22.2222 11.3849 21.8155 12.1982 21.0017L21.815 11.385C22.3575 10.8424 22.3575 9.96354 21.8154 9.42101ZM16.7712 12.5013H2.86144C2.92046 12.3346 3.01638 12.1549 3.18392 11.9878L3.75467 11.4171L7.29677 7.875L9.84017 10.4184C10.3823 10.9605 11.2616 10.9605 11.8037 10.4184C12.3458 9.8763 12.3458 8.99696 11.8037 8.45486L9.26031 5.91146L11.8189 3.35286L18.8692 10.4032L16.7712 12.5013Z" fill="#666666"/>
</svg>
