<svg width="22" height="25" viewBox="0 0 22 25" fill="none" xmlns="http://www.w3.org/2000/svg">
<path d="M15.1247 5.0686C15.1247 2.5833 13.2779 0.568615 10.9998 0.568615C8.72163 0.568615 6.87487 2.5833 6.87487 5.0686C6.87487 7.55391 8.72163 9.56859 10.9998 9.56859C13.2779 9.56859 15.1247 7.55391 15.1247 5.0686ZM10.0369 11.8701C7.48759 10.1677 3.35837 9.69984 1.28044 9.57094C0.582215 9.52781 0 10.1081 0 10.8408V21.2845C0 21.9562 0.497998 22.5164 1.13822 22.5525C3.0142 22.6598 6.80956 23.0531 9.43275 24.4945C9.83536 24.7157 10.3127 24.4143 10.3127 23.9381V12.4073C10.3123 12.1884 10.213 11.9878 10.0369 11.8701ZM20.7191 9.57094C18.6416 9.69937 14.512 10.1677 11.9631 11.8701C11.787 11.9878 11.6877 12.1964 11.6877 12.4153V23.9367C11.6877 24.4143 12.1664 24.7162 12.5703 24.4945C15.193 23.0545 18.9862 22.6612 20.8618 22.5539C21.502 22.5173 22 21.9572 22 21.2854V10.8408C21.9996 10.1081 21.4174 9.52781 20.7191 9.57094Z" fill="#666666"/>
</svg>
