<svg width="25" height="22" viewBox="0 0 25 22" fill="none" xmlns="http://www.w3.org/2000/svg">
<path d="M6.25 21.875H18.75V2.34375C18.75 1.0498 17.7002 0 16.4062 0H8.59375C7.2998 0 6.25 1.0498 6.25 2.34375V21.875ZM9.375 3.125H15.625V4.6875H9.375V3.125ZM25 7.03125V19.5312C25 20.8252 23.9502 21.875 22.6562 21.875H20.3125V4.6875H22.6562C23.9502 4.6875 25 5.7373 25 7.03125ZM4.6875 21.875H2.34375C1.0498 21.875 0 20.8252 0 19.5312V7.03125C0 5.7373 1.0498 4.6875 2.34375 4.6875H4.6875V21.875Z" fill="#666666"/>
</svg>
