<svg width="25" height="23" viewBox="0 0 25 23" fill="none" xmlns="http://www.w3.org/2000/svg">
<path d="M12.4999 4.98952L3.01511 13.3554C2.9448 13.4188 2.85496 13.4483 2.7777 13.5008V21.5277C2.7777 21.9114 3.08846 22.2222 3.47215 22.2222H9.94914L10 19.111V15.111L8.09888 17.6432L9.17787 17.9999L7.14736 19.111L9.94914 22.2222H21.5277C21.9114 22.2222 22.2221 21.9114 22.2221 21.5277V13.5025C22.1484 13.4522 22.0607 13.4236 21.9938 13.3637L12.4999 4.98952ZM24.7695 10.2551L22.2221 8.00558V2.08327C22.2221 1.69959 21.9114 1.38883 21.5277 1.38883H18.7499C18.3662 1.38883 18.0555 1.69959 18.0555 2.08327V4.32676L13.6609 0.447424C13.3298 0.14968 12.9149 0.0003749 12.4999 -5.91278e-05C12.085 -0.000493156 11.6709 0.147944 11.3411 0.445687L0.230392 10.2551C-0.0547643 10.5117 -0.0786358 10.9505 0.177875 11.2361L1.10669 12.2699C1.36277 12.5551 1.80201 12.5789 2.0876 12.3224L12.0407 3.54291C12.3033 3.31157 12.697 3.31157 12.9596 3.54291L22.9127 12.322C23.1978 12.5781 23.6371 12.5546 23.8936 12.2695L24.8224 11.2356C25.0785 10.9505 25.055 10.5112 24.7695 10.2551Z" fill="#666666"/>
</svg>
