<svg width="14" height="11" viewBox="0 0 14 11" fill="none" xmlns="http://www.w3.org/2000/svg">
<path d="M13.804 5.15361L11.2352 0.612276C11.1287 0.423935 10.9843 0.269508 10.815 0.162699C10.6457 0.0558899 10.4566 3.5803e-06 10.2645 0H3.7355C3.54343 7.25005e-07 3.35434 0.0558859 3.185 0.162695C3.01567 0.269505 2.87132 0.423934 2.76478 0.612276L0.195951 5.15361C0.068179 5.37947 -2.81294e-06 5.64485 0 5.91631L0 9.625C0 10.3844 0.522326 11 1.16667 11H12.8333C13.4777 11 14 10.3844 14 9.625V5.91631C14 5.64485 13.9318 5.37947 13.804 5.15361ZM3.94363 1.83333H10.0564L12.1305 5.5H9.13889L8.36111 7.33333H5.63889L4.86111 5.5H1.86953L3.94363 1.83333Z" fill="#666666"/>
</svg>
