<svg width="60" height="221" viewBox="0 0 60 221" fill="none" xmlns="http://www.w3.org/2000/svg">
<path d="M31 0V150H30L31 0Z" fill="url(#paint0_linear_1922_335)"/>
<circle cx="30" cy="172" r="30" fill="url(#paint1_linear_1922_335)"/>
<path d="M41.2221 174.889C41.2221 174.889 38.4443 178.91 38.4443 180.444C38.4443 181.979 39.6883 183.222 41.2221 183.222C42.756 183.222 43.9999 181.979 43.9999 180.444C43.9999 178.91 41.2221 174.889 41.2221 174.889ZM40.8154 170.421L31.8011 161.407C31.5298 161.135 31.1744 161 30.8189 161C30.4634 161 30.108 161.135 29.8371 161.407L26.2963 164.947L22.5559 161.207C22.2846 160.935 21.8449 160.935 21.5741 161.207L20.5923 162.188C20.3215 162.46 20.3215 162.899 20.5923 163.17L24.3332 166.911L20.2204 171.023C18.5932 172.65 18.5932 175.288 20.2204 176.915L25.3067 182.002C26.1201 182.815 27.1865 183.222 28.2525 183.222C29.3189 183.222 30.3849 182.816 31.1982 182.002L40.815 172.385C41.3575 171.842 41.3575 170.964 40.8154 170.421ZM35.7712 173.501H21.8614C21.9205 173.335 22.0164 173.155 22.1839 172.988L22.7547 172.417L26.2968 168.875L28.8402 171.418C29.3823 171.961 30.2616 171.961 30.8037 171.418C31.3458 170.876 31.3458 169.997 30.8037 169.455L28.2603 166.911L30.8189 164.353L37.8692 171.403L35.7712 173.501Z" fill="url(#paint2_linear_1922_335)"/>
<defs>
<linearGradient id="paint0_linear_1922_335" x1="31.5" y1="75" x2="29.5" y2="75" gradientUnits="userSpaceOnUse">
<stop offset="0.11826" stop-color="#52F337"/>
<stop offset="0.824351" stop-color="#138425"/>
</linearGradient>
<linearGradient id="paint1_linear_1922_335" x1="60" y1="172" x2="0" y2="172" gradientUnits="userSpaceOnUse">
<stop stop-color="#52F337"/>
<stop offset="0.7" stop-color="#138425"/>
</linearGradient>
<linearGradient id="paint2_linear_1922_335" x1="31.4999" y1="161" x2="31.4999" y2="183.222" gradientUnits="userSpaceOnUse">
<stop/>
<stop offset="1" stop-color="#666666"/>
</linearGradient>
</defs>
</svg>
