<svg width="60" height="202" viewBox="0 0 60 202" fill="none" xmlns="http://www.w3.org/2000/svg">
<path d="M31 0V150H30L31 0Z" fill="url(#paint0_linear_1922_326)"/>
<circle cx="30" cy="172" r="30" fill="url(#paint1_linear_1922_326)"/>
<path d="M35.1875 163.688C35.1875 161.099 33.0889 159 30.5 159C27.9111 159 25.8125 161.099 25.8125 163.688C25.8125 166.276 27.9111 168.375 30.5 168.375C33.0889 168.375 35.1875 166.276 35.1875 163.688ZM29.4058 170.772C26.5088 168.999 21.8164 168.512 19.4551 168.377C18.6616 168.333 18 168.937 18 169.7V180.579C18 181.279 18.5659 181.862 19.2935 181.9C21.4253 182.012 25.7383 182.421 28.7192 183.923C29.1768 184.153 29.7192 183.839 29.7192 183.343V171.332C29.7188 171.104 29.606 170.895 29.4058 170.772ZM41.5449 168.377C39.1841 168.511 34.4912 168.999 31.5947 170.772C31.3945 170.895 31.2817 171.112 31.2817 171.34V183.342C31.2817 183.839 31.8257 184.154 32.2847 183.923C35.2651 182.423 39.5757 182.013 41.707 181.901C42.4346 181.863 43.0005 181.28 43.0005 180.58V169.7C43 168.937 42.3384 168.333 41.5449 168.377Z" fill="url(#paint2_linear_1922_326)"/>
<defs>
<linearGradient id="paint0_linear_1922_326" x1="31.5" y1="75" x2="29.5" y2="75" gradientUnits="userSpaceOnUse">
<stop offset="0.11826" stop-color="#FF3D00"/>
<stop offset="0.824351" stop-color="#AD3333"/>
</linearGradient>
<linearGradient id="paint1_linear_1922_326" x1="60" y1="172" x2="0" y2="172" gradientUnits="userSpaceOnUse">
<stop stop-color="#FF3D00"/>
<stop offset="0.730291" stop-color="#AD3333"/>
</linearGradient>
<linearGradient id="paint2_linear_1922_326" x1="30.5002" y1="159" x2="30.5002" y2="184" gradientUnits="userSpaceOnUse">
<stop/>
<stop offset="1" stop-color="#666666"/>
</linearGradient>
</defs>
</svg>
