<svg width="60" height="202" viewBox="0 0 60 202" fill="none" xmlns="http://www.w3.org/2000/svg">
<path d="M31 0V150H30L31 0Z" fill="url(#paint0_linear_1922_345)"/>
<circle cx="30" cy="172" r="30" fill="url(#paint1_linear_1922_345)"/>
<path d="M24.25 182.875H36.75V163.344C36.75 162.05 35.7002 161 34.4062 161H26.5938C25.2998 161 24.25 162.05 24.25 163.344V182.875ZM27.375 164.125H33.625V165.688H27.375V164.125ZM43 168.031V180.531C43 181.825 41.9502 182.875 40.6562 182.875H38.3125V165.688H40.6562C41.9502 165.688 43 166.737 43 168.031ZM22.6875 182.875H20.3438C19.0498 182.875 18 181.825 18 180.531V168.031C18 166.737 19.0498 165.688 20.3438 165.688H22.6875V182.875Z" fill="url(#paint2_linear_1922_345)"/>
<defs>
<linearGradient id="paint0_linear_1922_345" x1="31.5" y1="75" x2="29.5" y2="75" gradientUnits="userSpaceOnUse">
<stop offset="0.11826" stop-color="#FFE500"/>
<stop offset="0.824351" stop-color="#BDAA00"/>
</linearGradient>
<linearGradient id="paint1_linear_1922_345" x1="60" y1="172" x2="0" y2="172" gradientUnits="userSpaceOnUse">
<stop stop-color="#FFE600"/>
<stop offset="0.7" stop-color="#BDAA00"/>
</linearGradient>
<linearGradient id="paint2_linear_1922_345" x1="30.5" y1="161" x2="30.5" y2="182.875" gradientUnits="userSpaceOnUse">
<stop/>
<stop offset="1" stop-color="#666666"/>
</linearGradient>
</defs>
</svg>
