<svg width="60" height="202" viewBox="0 0 60 202" fill="none" xmlns="http://www.w3.org/2000/svg">
<path d="M31 0V150H30L31 0Z" fill="url(#paint0_linear_1922_328)"/>
<circle cx="30" cy="172" r="30" fill="url(#paint1_linear_1922_328)"/>
<path d="M39.6147 166.369L31.5103 161.443C30.5381 160.852 29.3364 160.852 28.3643 161.443L20.2603 166.369C20.0005 166.527 20.002 166.919 20.2632 167.075L29.9375 172.844L39.6123 167.075C39.8735 166.919 39.875 166.527 39.6147 166.369ZM40.2905 168.548L30.7188 174.255V185.184C30.7188 185.813 31.3726 186.205 31.8931 185.888L39.3228 181.373C40.2837 180.789 40.875 179.716 40.875 178.555V168.902C40.875 168.589 40.5508 168.393 40.2905 168.548ZM19 168.902V178.555C19 179.716 19.5913 180.789 20.5522 181.373L27.9819 185.888C28.5029 186.204 29.1562 185.813 29.1562 185.183V174.255L19.5845 168.548C19.3242 168.393 19 168.589 19 168.902Z" fill="url(#paint2_linear_1922_328)"/>
<defs>
<linearGradient id="paint0_linear_1922_328" x1="31.5" y1="75" x2="29.5" y2="75" gradientUnits="userSpaceOnUse">
<stop offset="0.11826" stop-color="#FFBB35"/>
<stop offset="0.824351" stop-color="#FF7502"/>
</linearGradient>
<linearGradient id="paint1_linear_1922_328" x1="60" y1="172" x2="0" y2="172" gradientUnits="userSpaceOnUse">
<stop stop-color="#FFC33B"/>
<stop offset="0.730291" stop-color="#FF7401"/>
</linearGradient>
<linearGradient id="paint2_linear_1922_328" x1="29.9375" y1="161" x2="29.9375" y2="186" gradientUnits="userSpaceOnUse">
<stop/>
<stop offset="1" stop-color="#666666"/>
</linearGradient>
</defs>
</svg>
